<?xml version="1.0" encoding="utf-8" standalone="no"?>
<!DOCTYPE svg PUBLIC "-//W3C//DTD SVG 1.1//EN"
  "http://www.w3.org/Graphics/SVG/1.1/DTD/svg11.dtd">
<svg xmlns:xlink="http://www.w3.org/1999/xlink" width="653.353438pt" height="269.424pt" viewBox="0 0 653.353438 269.424" xmlns="http://www.w3.org/2000/svg" version="1.1">
 <metadata>
  <rdf:RDF xmlns:dc="http://purl.org/dc/elements/1.1/" xmlns:cc="http://creativecommons.org/ns#" xmlns:rdf="http://www.w3.org/1999/02/22-rdf-syntax-ns#">
   <cc:Work>
    <dc:type rdf:resource="http://purl.org/dc/dcmitype/StillImage"/>
    <dc:date>2026-06-18T23:24:28.714447</dc:date>
    <dc:format>image/svg+xml</dc:format>
    <dc:creator>
     <cc:Agent>
      <dc:title>Matplotlib v3.11.0, https://matplotlib.org/</dc:title>
     </cc:Agent>
    </dc:creator>
   </cc:Work>
  </rdf:RDF>
 </metadata>
 <defs>
  <style type="text/css">*{stroke-linejoin: round; stroke-linecap: butt}</style>
 </defs>
 <g id="figure_1">
  <g id="patch_1">
   <path d="M 0 269.424 
L 653.353437 269.424 
L 653.353437 0 
L 0 0 
z
" style="fill: #ffffff"/>
  </g>
  <g id="axes_1">
   <g id="patch_2">
    <path d="M 129.405542 175.51584 
Q 137.635921 175.51584 143.85384 175.51584 
" clip-path="url(#p0d0239be77)" style="fill: none; stroke: #1b2a3a; stroke-width: 1.8; stroke-linecap: round"/>
    <path d="M 138.25384 172.71584 
L 143.85384 175.51584 
L 138.25384 178.31584 
z
" clip-path="url(#p0d0239be77)" style="fill: #1b2a3a; stroke: #1b2a3a; stroke-width: 1.8; stroke-linecap: round"/>
   </g>
   <g id="patch_3">
    <path d="M 247.050542 175.51584 
Q 255.280921 175.51584 261.49884 175.51584 
" clip-path="url(#p0d0239be77)" style="fill: none; stroke: #1b2a3a; stroke-width: 1.8; stroke-linecap: round"/>
    <path d="M 255.89884 172.71584 
L 261.49884 175.51584 
L 255.89884 178.31584 
z
" clip-path="url(#p0d0239be77)" style="fill: #1b2a3a; stroke: #1b2a3a; stroke-width: 1.8; stroke-linecap: round"/>
   </g>
   <g id="patch_4">
    <path d="M 364.695542 175.51584 
Q 372.925921 175.51584 379.14384 175.51584 
" clip-path="url(#p0d0239be77)" style="fill: none; stroke: #1b2a3a; stroke-width: 1.8; stroke-linecap: round"/>
    <path d="M 373.54384 172.71584 
L 379.14384 175.51584 
L 373.54384 178.31584 
z
" clip-path="url(#p0d0239be77)" style="fill: #1b2a3a; stroke: #1b2a3a; stroke-width: 1.8; stroke-linecap: round"/>
   </g>
   <g id="patch_5">
    <path d="M 482.340542 175.51584 
Q 490.570921 175.51584 496.78884 175.51584 
" clip-path="url(#p0d0239be77)" style="fill: none; stroke: #1b2a3a; stroke-width: 1.8; stroke-linecap: round"/>
    <path d="M 491.18884 172.71584 
L 496.78884 175.51584 
L 491.18884 178.31584 
z
" clip-path="url(#p0d0239be77)" style="fill: #1b2a3a; stroke: #1b2a3a; stroke-width: 1.8; stroke-linecap: round"/>
   </g>
   <g id="patch_6">
    <path d="M 599.979922 175.51584 
Q 606.932569 175.51584 611.872755 175.51584 
" clip-path="url(#p0d0239be77)" style="fill: none; stroke: #1b2a3a; stroke-width: 1.8; stroke-linecap: round"/>
    <path d="M 606.272755 172.71584 
L 611.872755 175.51584 
L 606.272755 178.31584 
z
" clip-path="url(#p0d0239be77)" style="fill: #1b2a3a; stroke: #1b2a3a; stroke-width: 1.8; stroke-linecap: round"/>
   </g>
   <g id="patch_7">
    <path d="M 197.05954 145.556098 
Q 207.993557 112.32963 238.740228 100.435738 
" clip-path="url(#p0d0239be77)" style="fill: none; stroke-dasharray: 7.2,5.4; stroke-dashoffset: 0; stroke: #e8743b; stroke-width: 1.8; stroke-linecap: round"/>
    <path d="M 232.507198 99.844696 
L 238.740228 100.435738 
L 234.527576 105.067537 
z
" clip-path="url(#p0d0239be77)" style="fill: #e8743b; stroke-dasharray: 7.2,5.4; stroke-dashoffset: 0; stroke: #e8743b; stroke-width: 1.8; stroke-linecap: round"/>
   </g>
   <g id="patch_8">
    <path d="M 397.710153 99.93645 
Q 425.252971 114.802149 430.983344 143.521387 
" clip-path="url(#p0d0239be77)" style="fill: none; stroke-dasharray: 7.2,5.4; stroke-dashoffset: 0; stroke: #c0392b; stroke-width: 1.8; stroke-linecap: round"/>
    <path d="M 432.633445 137.481754 
L 430.983344 143.521387 
L 427.141698 138.577527 
z
" clip-path="url(#p0d0239be77)" style="fill: #c0392b; stroke-dasharray: 7.2,5.4; stroke-dashoffset: 0; stroke: #c0392b; stroke-width: 1.8; stroke-linecap: round"/>
   </g>
   <g id="patch_9">
    <path d="M 35.3325 203.313456 
L 122.2875 203.313456 
Q 128.4255 203.313456 128.4255 197.19288 
L 128.4255 153.8388 
Q 128.4255 147.718224 122.2875 147.718224 
L 35.3325 147.718224 
Q 29.1945 147.718224 29.1945 153.8388 
L 29.1945 197.19288 
Q 29.1945 203.313456 35.3325 203.313456 
z
" clip-path="url(#p0d0239be77)" style="fill: #eef2f5; stroke: #6b7a89; stroke-width: 1.6; stroke-linejoin: miter"/>
   </g>
   <g id="patch_10">
    <path d="M 152.9775 203.313456 
L 239.9325 203.313456 
Q 246.0705 203.313456 246.0705 197.19288 
L 246.0705 153.8388 
Q 246.0705 147.718224 239.9325 147.718224 
L 152.9775 147.718224 
Q 146.8395 147.718224 146.8395 153.8388 
L 146.8395 197.19288 
Q 146.8395 203.313456 152.9775 203.313456 
z
" clip-path="url(#p0d0239be77)" style="fill: #fdeee6; stroke: #e8743b; stroke-width: 1.6; stroke-linejoin: miter"/>
   </g>
   <g id="patch_11">
    <path d="M 270.6225 203.313456 
L 357.5775 203.313456 
Q 363.7155 203.313456 363.7155 197.19288 
L 363.7155 153.8388 
Q 363.7155 147.718224 357.5775 147.718224 
L 270.6225 147.718224 
Q 264.4845 147.718224 264.4845 153.8388 
L 264.4845 197.19288 
Q 264.4845 203.313456 270.6225 203.313456 
z
" clip-path="url(#p0d0239be77)" style="fill: #eef2f5; stroke: #2e6f9e; stroke-width: 1.6; stroke-linejoin: miter"/>
   </g>
   <g id="patch_12">
    <path d="M 388.2675 203.313456 
L 475.2225 203.313456 
Q 481.3605 203.313456 481.3605 197.19288 
L 481.3605 153.8388 
Q 481.3605 147.718224 475.2225 147.718224 
L 388.2675 147.718224 
Q 382.1295 147.718224 382.1295 153.8388 
L 382.1295 197.19288 
Q 382.1295 203.313456 388.2675 203.313456 
z
" clip-path="url(#p0d0239be77)" style="fill: #eef2f5; stroke: #2e6f9e; stroke-width: 1.6; stroke-linejoin: miter"/>
   </g>
   <g id="patch_13">
    <path d="M 505.9125 203.313456 
L 592.8675 203.313456 
Q 599.0055 203.313456 599.0055 197.19288 
L 599.0055 153.8388 
Q 599.0055 147.718224 592.8675 147.718224 
L 505.9125 147.718224 
Q 499.7745 147.718224 499.7745 153.8388 
L 499.7745 197.19288 
Q 499.7745 203.313456 505.9125 203.313456 
z
" clip-path="url(#p0d0239be77)" style="fill: #eef2f5; stroke: #2e6f9e; stroke-width: 1.6; stroke-linejoin: miter"/>
   </g>
   <g id="patch_14">
    <path d="M 505.9125 203.313456 
L 592.8675 203.313456 
Q 599.0055 203.313456 599.0055 197.19288 
L 599.0055 153.8388 
Q 599.0055 147.718224 592.8675 147.718224 
L 505.9125 147.718224 
Q 499.7745 147.718224 499.7745 153.8388 
L 499.7745 197.19288 
Q 499.7745 203.313456 505.9125 203.313456 
z
" clip-path="url(#p0d0239be77)" style="fill: #eef2f5; stroke: #2e6f9e; stroke-width: 1.6; stroke-linejoin: miter"/>
   </g>
   <g id="patch_15">
    <path d="M 124.845 100.028736 
L 503.355 100.028736 
Q 509.493 100.028736 509.493 93.90816 
L 509.493 53.10432 
Q 509.493 46.983744 503.355 46.983744 
L 124.845 46.983744 
Q 118.707 46.983744 118.707 53.10432 
L 118.707 93.90816 
Q 118.707 100.028736 124.845 100.028736 
z
" clip-path="url(#p0d0239be77)" style="fill: #eaf1f7; stroke: #2e6f9e; stroke-width: 1.6; stroke-linejoin: miter"/>
   </g>
   <g id="text_1">
    <!-- caller -->
    <g style="fill: #1b2a3a" transform="translate(64.400391 171.942354) scale(0.105 -0.105)">
     <defs>
      <path id="DejaVuSans-46" d="M 3122 3366 
L 3122 2828 
Q 2878 2963 2633 3030 
Q 2388 3097 2138 3097 
Q 1578 3097 1268 2742 
Q 959 2388 959 1747 
Q 959 1106 1268 751 
Q 1578 397 2138 397 
Q 2388 397 2633 464 
Q 2878 531 3122 666 
L 3122 134 
Q 2881 22 2623 -34 
Q 2366 -91 2075 -91 
Q 1284 -91 818 406 
Q 353 903 353 1747 
Q 353 2603 823 3093 
Q 1294 3584 2113 3584 
Q 2378 3584 2631 3529 
Q 2884 3475 3122 3366 
z
" transform="scale(0.015625)"/>
      <path id="DejaVuSans-44" d="M 2194 1759 
Q 1497 1759 1228 1600 
Q 959 1441 959 1056 
Q 959 750 1161 570 
Q 1363 391 1709 391 
Q 2188 391 2477 730 
Q 2766 1069 2766 1631 
L 2766 1759 
L 2194 1759 
z
M 3341 1997 
L 3341 0 
L 2766 0 
L 2766 531 
Q 2569 213 2275 61 
Q 1981 -91 1556 -91 
Q 1019 -91 701 211 
Q 384 513 384 1019 
Q 384 1609 779 1909 
Q 1175 2209 1959 2209 
L 2766 2209 
L 2766 2266 
Q 2766 2663 2505 2880 
Q 2244 3097 1772 3097 
Q 1472 3097 1187 3025 
Q 903 2953 641 2809 
L 641 3341 
Q 956 3463 1253 3523 
Q 1550 3584 1831 3584 
Q 2591 3584 2966 3190 
Q 3341 2797 3341 1997 
z
" transform="scale(0.015625)"/>
      <path id="DejaVuSans-4f" d="M 603 4863 
L 1178 4863 
L 1178 0 
L 603 0 
L 603 4863 
z
" transform="scale(0.015625)"/>
      <path id="DejaVuSans-48" d="M 3597 1894 
L 3597 1613 
L 953 1613 
Q 991 1019 1311 708 
Q 1631 397 2203 397 
Q 2534 397 2845 478 
Q 3156 559 3463 722 
L 3463 178 
Q 3153 47 2828 -22 
Q 2503 -91 2169 -91 
Q 1331 -91 842 396 
Q 353 884 353 1716 
Q 353 2575 817 3079 
Q 1281 3584 2069 3584 
Q 2775 3584 3186 3129 
Q 3597 2675 3597 1894 
z
M 3022 2063 
Q 3016 2534 2758 2815 
Q 2500 3097 2075 3097 
Q 1594 3097 1305 2825 
Q 1016 2553 972 2059 
L 3022 2063 
z
" transform="scale(0.015625)"/>
      <path id="DejaVuSans-55" d="M 2631 2963 
Q 2534 3019 2420 3045 
Q 2306 3072 2169 3072 
Q 1681 3072 1420 2755 
Q 1159 2438 1159 1844 
L 1159 0 
L 581 0 
L 581 3500 
L 1159 3500 
L 1159 2956 
Q 1341 3275 1631 3429 
Q 1922 3584 2338 3584 
Q 2397 3584 2469 3576 
Q 2541 3569 2628 3553 
L 2631 2963 
z
" transform="scale(0.015625)"/>
     </defs>
     <use xlink:href="#DejaVuSans-46"/>
     <use xlink:href="#DejaVuSans-44" transform="translate(54.984375 0)"/>
     <use xlink:href="#DejaVuSans-4f" transform="translate(116.265625 0)"/>
     <use xlink:href="#DejaVuSans-4f" transform="translate(144.046875 0)"/>
     <use xlink:href="#DejaVuSans-48" transform="translate(171.828125 0)"/>
     <use xlink:href="#DejaVuSans-55" transform="translate(233.359375 0)"/>
    </g>
    <!-- audio -->
    <g style="fill: #1b2a3a" transform="translate(64.261758 184.545225) scale(0.105 -0.105)">
     <defs>
      <path id="DejaVuSans-58" d="M 544 1381 
L 544 3500 
L 1119 3500 
L 1119 1403 
Q 1119 906 1312 657 
Q 1506 409 1894 409 
Q 2359 409 2629 706 
Q 2900 1003 2900 1516 
L 2900 3500 
L 3475 3500 
L 3475 0 
L 2900 0 
L 2900 538 
Q 2691 219 2414 64 
Q 2138 -91 1772 -91 
Q 1169 -91 856 284 
Q 544 659 544 1381 
z
M 1991 3584 
L 1991 3584 
z
" transform="scale(0.015625)"/>
      <path id="DejaVuSans-47" d="M 2906 2969 
L 2906 4863 
L 3481 4863 
L 3481 0 
L 2906 0 
L 2906 525 
Q 2725 213 2448 61 
Q 2172 -91 1784 -91 
Q 1150 -91 751 415 
Q 353 922 353 1747 
Q 353 2572 751 3078 
Q 1150 3584 1784 3584 
Q 2172 3584 2448 3432 
Q 2725 3281 2906 2969 
z
M 947 1747 
Q 947 1113 1208 752 
Q 1469 391 1925 391 
Q 2381 391 2643 752 
Q 2906 1113 2906 1747 
Q 2906 2381 2643 2742 
Q 2381 3103 1925 3103 
Q 1469 3103 1208 2742 
Q 947 2381 947 1747 
z
" transform="scale(0.015625)"/>
      <path id="DejaVuSans-4c" d="M 603 3500 
L 1178 3500 
L 1178 0 
L 603 0 
L 603 3500 
z
M 603 4863 
L 1178 4863 
L 1178 4134 
L 603 4134 
L 603 4863 
z
" transform="scale(0.015625)"/>
      <path id="DejaVuSans-52" d="M 1959 3097 
Q 1497 3097 1228 2736 
Q 959 2375 959 1747 
Q 959 1119 1226 758 
Q 1494 397 1959 397 
Q 2419 397 2687 759 
Q 2956 1122 2956 1747 
Q 2956 2369 2687 2733 
Q 2419 3097 1959 3097 
z
M 1959 3584 
Q 2709 3584 3137 3096 
Q 3566 2609 3566 1747 
Q 3566 888 3137 398 
Q 2709 -91 1959 -91 
Q 1206 -91 779 398 
Q 353 888 353 1747 
Q 353 2609 779 3096 
Q 1206 3584 1959 3584 
z
" transform="scale(0.015625)"/>
     </defs>
     <use xlink:href="#DejaVuSans-44"/>
     <use xlink:href="#DejaVuSans-58" transform="translate(61.28125 0)"/>
     <use xlink:href="#DejaVuSans-47" transform="translate(124.65625 0)"/>
     <use xlink:href="#DejaVuSans-4c" transform="translate(188.140625 0)"/>
     <use xlink:href="#DejaVuSans-52" transform="translate(215.921875 0)"/>
    </g>
   </g>
   <g id="text_2">
    <!-- VAD -->
    <g style="fill: #1b2a3a" transform="translate(185.565352 171.941944) scale(0.105 -0.105)">
     <defs>
      <path id="DejaVuSans-39" d="M 1831 0 
L 50 4666 
L 709 4666 
L 2188 738 
L 3669 4666 
L 4325 4666 
L 2547 0 
L 1831 0 
z
" transform="scale(0.015625)"/>
      <path id="DejaVuSans-24" d="M 2188 4044 
L 1331 1722 
L 3047 1722 
L 2188 4044 
z
M 1831 4666 
L 2547 4666 
L 4325 0 
L 3669 0 
L 3244 1197 
L 1141 1197 
L 716 0 
L 50 0 
L 1831 4666 
z
" transform="scale(0.015625)"/>
      <path id="DejaVuSans-27" d="M 1259 4147 
L 1259 519 
L 2022 519 
Q 2988 519 3436 956 
Q 3884 1394 3884 2338 
Q 3884 3275 3436 3711 
Q 2988 4147 2022 4147 
L 1259 4147 
z
M 628 4666 
L 1925 4666 
Q 3281 4666 3915 4102 
Q 4550 3538 4550 2338 
Q 4550 1131 3912 565 
Q 3275 0 1925 0 
L 628 0 
L 628 4666 
z
" transform="scale(0.015625)"/>
     </defs>
     <use xlink:href="#DejaVuSans-39"/>
     <use xlink:href="#DejaVuSans-24" transform="translate(62.015625 0)"/>
     <use xlink:href="#DejaVuSans-27" transform="translate(130.421875 0)"/>
    </g>
    <!-- voice activity -->
    <g style="fill: #1b2a3a" transform="translate(161.539219 184.544815) scale(0.105 -0.105)">
     <defs>
      <path id="DejaVuSans-59" d="M 191 3500 
L 800 3500 
L 1894 563 
L 2988 3500 
L 3597 3500 
L 2284 0 
L 1503 0 
L 191 3500 
z
" transform="scale(0.015625)"/>
      <path id="DejaVuSans-3" transform="scale(0.015625)"/>
      <path id="DejaVuSans-57" d="M 1172 4494 
L 1172 3500 
L 2356 3500 
L 2356 3053 
L 1172 3053 
L 1172 1153 
Q 1172 725 1289 603 
Q 1406 481 1766 481 
L 2356 481 
L 2356 0 
L 1766 0 
Q 1100 0 847 248 
Q 594 497 594 1153 
L 594 3053 
L 172 3053 
L 172 3500 
L 594 3500 
L 594 4494 
L 1172 4494 
z
" transform="scale(0.015625)"/>
      <path id="DejaVuSans-5c" d="M 2059 -325 
Q 1816 -950 1584 -1140 
Q 1353 -1331 966 -1331 
L 506 -1331 
L 506 -850 
L 844 -850 
Q 1081 -850 1212 -737 
Q 1344 -625 1503 -206 
L 1606 56 
L 191 3500 
L 800 3500 
L 1894 763 
L 2988 3500 
L 3597 3500 
L 2059 -325 
z
" transform="scale(0.015625)"/>
     </defs>
     <use xlink:href="#DejaVuSans-59"/>
     <use xlink:href="#DejaVuSans-52" transform="translate(59.1875 0)"/>
     <use xlink:href="#DejaVuSans-4c" transform="translate(120.375 0)"/>
     <use xlink:href="#DejaVuSans-46" transform="translate(148.15625 0)"/>
     <use xlink:href="#DejaVuSans-48" transform="translate(203.140625 0)"/>
     <use xlink:href="#DejaVuSans-3" transform="translate(264.671875 0)"/>
     <use xlink:href="#DejaVuSans-44" transform="translate(296.453125 0)"/>
     <use xlink:href="#DejaVuSans-46" transform="translate(357.734375 0)"/>
     <use xlink:href="#DejaVuSans-57" transform="translate(412.71875 0)"/>
     <use xlink:href="#DejaVuSans-4c" transform="translate(451.921875 0)"/>
     <use xlink:href="#DejaVuSans-59" transform="translate(479.703125 0)"/>
     <use xlink:href="#DejaVuSans-4c" transform="translate(538.890625 0)"/>
     <use xlink:href="#DejaVuSans-57" transform="translate(566.671875 0)"/>
     <use xlink:href="#DejaVuSans-5c" transform="translate(605.875 0)"/>
    </g>
   </g>
   <g id="text_3">
    <!-- ASR · ear -->
    <g style="fill: #1b2a3a" transform="translate(289.916367 171.941944) scale(0.105 -0.105)">
     <defs>
      <path id="DejaVuSans-36" d="M 3425 4513 
L 3425 3897 
Q 3066 4069 2747 4153 
Q 2428 4238 2131 4238 
Q 1616 4238 1336 4038 
Q 1056 3838 1056 3469 
Q 1056 3159 1242 3001 
Q 1428 2844 1947 2747 
L 2328 2669 
Q 3034 2534 3370 2195 
Q 3706 1856 3706 1288 
Q 3706 609 3251 259 
Q 2797 -91 1919 -91 
Q 1588 -91 1214 -16 
Q 841 59 441 206 
L 441 856 
Q 825 641 1194 531 
Q 1563 422 1919 422 
Q 2459 422 2753 634 
Q 3047 847 3047 1241 
Q 3047 1584 2836 1778 
Q 2625 1972 2144 2069 
L 1759 2144 
Q 1053 2284 737 2584 
Q 422 2884 422 3419 
Q 422 4038 858 4394 
Q 1294 4750 2059 4750 
Q 2388 4750 2728 4690 
Q 3069 4631 3425 4513 
z
" transform="scale(0.015625)"/>
      <path id="DejaVuSans-35" d="M 2841 2188 
Q 3044 2119 3236 1894 
Q 3428 1669 3622 1275 
L 4263 0 
L 3584 0 
L 2988 1197 
Q 2756 1666 2539 1819 
Q 2322 1972 1947 1972 
L 1259 1972 
L 1259 0 
L 628 0 
L 628 4666 
L 2053 4666 
Q 2853 4666 3247 4331 
Q 3641 3997 3641 3322 
Q 3641 2881 3436 2590 
Q 3231 2300 2841 2188 
z
M 1259 4147 
L 1259 2491 
L 2053 2491 
Q 2509 2491 2742 2702 
Q 2975 2913 2975 3322 
Q 2975 3731 2742 3939 
Q 2509 4147 2053 4147 
L 1259 4147 
z
" transform="scale(0.015625)"/>
      <path id="DejaVuSans-79" d="M 684 2619 
L 1344 2619 
L 1344 1825 
L 684 1825 
L 684 2619 
z
" transform="scale(0.015625)"/>
     </defs>
     <use xlink:href="#DejaVuSans-24"/>
     <use xlink:href="#DejaVuSans-36" transform="translate(68.40625 0)"/>
     <use xlink:href="#DejaVuSans-35" transform="translate(131.890625 0)"/>
     <use xlink:href="#DejaVuSans-3" transform="translate(201.375 0)"/>
     <use xlink:href="#DejaVuSans-79" transform="translate(233.15625 0)"/>
     <use xlink:href="#DejaVuSans-3" transform="translate(264.9375 0)"/>
     <use xlink:href="#DejaVuSans-48" transform="translate(296.71875 0)"/>
     <use xlink:href="#DejaVuSans-44" transform="translate(358.25 0)"/>
     <use xlink:href="#DejaVuSans-55" transform="translate(419.53125 0)"/>
    </g>
    <!-- speech → text -->
    <g style="fill: #1b2a3a" transform="translate(277.258945 184.544815) scale(0.105 -0.105)">
     <defs>
      <path id="DejaVuSans-56" d="M 2834 3397 
L 2834 2853 
Q 2591 2978 2328 3040 
Q 2066 3103 1784 3103 
Q 1356 3103 1142 2972 
Q 928 2841 928 2578 
Q 928 2378 1081 2264 
Q 1234 2150 1697 2047 
L 1894 2003 
Q 2506 1872 2764 1633 
Q 3022 1394 3022 966 
Q 3022 478 2636 193 
Q 2250 -91 1575 -91 
Q 1294 -91 989 -36 
Q 684 19 347 128 
L 347 722 
Q 666 556 975 473 
Q 1284 391 1588 391 
Q 1994 391 2212 530 
Q 2431 669 2431 922 
Q 2431 1156 2273 1281 
Q 2116 1406 1581 1522 
L 1381 1569 
Q 847 1681 609 1914 
Q 372 2147 372 2553 
Q 372 3047 722 3315 
Q 1072 3584 1716 3584 
Q 2034 3584 2315 3537 
Q 2597 3491 2834 3397 
z
" transform="scale(0.015625)"/>
      <path id="DejaVuSans-53" d="M 1159 525 
L 1159 -1331 
L 581 -1331 
L 581 3500 
L 1159 3500 
L 1159 2969 
Q 1341 3281 1617 3432 
Q 1894 3584 2278 3584 
Q 2916 3584 3314 3078 
Q 3713 2572 3713 1747 
Q 3713 922 3314 415 
Q 2916 -91 2278 -91 
Q 1894 -91 1617 61 
Q 1341 213 1159 525 
z
M 3116 1747 
Q 3116 2381 2855 2742 
Q 2594 3103 2138 3103 
Q 1681 3103 1420 2742 
Q 1159 2381 1159 1747 
Q 1159 1113 1420 752 
Q 1681 391 2138 391 
Q 2594 391 2855 752 
Q 3116 1113 3116 1747 
z
" transform="scale(0.015625)"/>
      <path id="DejaVuSans-4b" d="M 3513 2113 
L 3513 0 
L 2938 0 
L 2938 2094 
Q 2938 2591 2744 2837 
Q 2550 3084 2163 3084 
Q 1697 3084 1428 2787 
Q 1159 2491 1159 1978 
L 1159 0 
L 581 0 
L 581 4863 
L 1159 4863 
L 1159 2956 
Q 1366 3272 1645 3428 
Q 1925 3584 2291 3584 
Q 2894 3584 3203 3211 
Q 3513 2838 3513 2113 
z
" transform="scale(0.015625)"/>
      <path id="DejaVuSans-c1c" d="M 5050 2147 
L 5050 1866 
L 3822 638 
L 3447 1013 
L 4175 1741 
L 366 1741 
L 366 2272 
L 4175 2272 
L 3447 3000 
L 3822 3375 
L 5050 2147 
z
" transform="scale(0.015625)"/>
      <path id="DejaVuSans-5b" d="M 3513 3500 
L 2247 1797 
L 3578 0 
L 2900 0 
L 1881 1375 
L 863 0 
L 184 0 
L 1544 1831 
L 300 3500 
L 978 3500 
L 1906 2253 
L 2834 3500 
L 3513 3500 
z
" transform="scale(0.015625)"/>
     </defs>
     <use xlink:href="#DejaVuSans-56"/>
     <use xlink:href="#DejaVuSans-53" transform="translate(52.09375 0)"/>
     <use xlink:href="#DejaVuSans-48" transform="translate(115.578125 0)"/>
     <use xlink:href="#DejaVuSans-48" transform="translate(177.109375 0)"/>
     <use xlink:href="#DejaVuSans-46" transform="translate(238.640625 0)"/>
     <use xlink:href="#DejaVuSans-4b" transform="translate(293.625 0)"/>
     <use xlink:href="#DejaVuSans-3" transform="translate(357 0)"/>
     <use xlink:href="#DejaVuSans-c1c" transform="translate(388.78125 0)"/>
     <use xlink:href="#DejaVuSans-3" transform="translate(472.578125 0)"/>
     <use xlink:href="#DejaVuSans-57" transform="translate(504.359375 0)"/>
     <use xlink:href="#DejaVuSans-48" transform="translate(543.5625 0)"/>
     <use xlink:href="#DejaVuSans-5b" transform="translate(603.34375 0)"/>
     <use xlink:href="#DejaVuSans-57" transform="translate(662.53125 0)"/>
    </g>
   </g>
   <g id="text_4">
    <!-- LLM · brain -->
    <g style="fill: #1b2a3a" transform="translate(402.865078 171.942354) scale(0.105 -0.105)">
     <defs>
      <path id="DejaVuSans-2f" d="M 628 4666 
L 1259 4666 
L 1259 531 
L 3531 531 
L 3531 0 
L 628 0 
L 628 4666 
z
" transform="scale(0.015625)"/>
      <path id="DejaVuSans-30" d="M 628 4666 
L 1569 4666 
L 2759 1491 
L 3956 4666 
L 4897 4666 
L 4897 0 
L 4281 0 
L 4281 4097 
L 3078 897 
L 2444 897 
L 1241 4097 
L 1241 0 
L 628 0 
L 628 4666 
z
" transform="scale(0.015625)"/>
      <path id="DejaVuSans-45" d="M 3116 1747 
Q 3116 2381 2855 2742 
Q 2594 3103 2138 3103 
Q 1681 3103 1420 2742 
Q 1159 2381 1159 1747 
Q 1159 1113 1420 752 
Q 1681 391 2138 391 
Q 2594 391 2855 752 
Q 3116 1113 3116 1747 
z
M 1159 2969 
Q 1341 3281 1617 3432 
Q 1894 3584 2278 3584 
Q 2916 3584 3314 3078 
Q 3713 2572 3713 1747 
Q 3713 922 3314 415 
Q 2916 -91 2278 -91 
Q 1894 -91 1617 61 
Q 1341 213 1159 525 
L 1159 0 
L 581 0 
L 581 4863 
L 1159 4863 
L 1159 2969 
z
" transform="scale(0.015625)"/>
      <path id="DejaVuSans-51" d="M 3513 2113 
L 3513 0 
L 2938 0 
L 2938 2094 
Q 2938 2591 2744 2837 
Q 2550 3084 2163 3084 
Q 1697 3084 1428 2787 
Q 1159 2491 1159 1978 
L 1159 0 
L 581 0 
L 581 3500 
L 1159 3500 
L 1159 2956 
Q 1366 3272 1645 3428 
Q 1925 3584 2291 3584 
Q 2894 3584 3203 3211 
Q 3513 2838 3513 2113 
z
" transform="scale(0.015625)"/>
     </defs>
     <use xlink:href="#DejaVuSans-2f"/>
     <use xlink:href="#DejaVuSans-2f" transform="translate(55.71875 0)"/>
     <use xlink:href="#DejaVuSans-30" transform="translate(111.4375 0)"/>
     <use xlink:href="#DejaVuSans-3" transform="translate(197.71875 0)"/>
     <use xlink:href="#DejaVuSans-79" transform="translate(229.5 0)"/>
     <use xlink:href="#DejaVuSans-3" transform="translate(261.28125 0)"/>
     <use xlink:href="#DejaVuSans-45" transform="translate(293.0625 0)"/>
     <use xlink:href="#DejaVuSans-55" transform="translate(356.546875 0)"/>
     <use xlink:href="#DejaVuSans-44" transform="translate(397.65625 0)"/>
     <use xlink:href="#DejaVuSans-4c" transform="translate(458.9375 0)"/>
     <use xlink:href="#DejaVuSans-51" transform="translate(486.71875 0)"/>
    </g>
    <!-- Urdu reply -->
    <g style="fill: #1b2a3a" transform="translate(404.335898 184.545225) scale(0.105 -0.105)">
     <defs>
      <path id="DejaVuSans-38" d="M 556 4666 
L 1191 4666 
L 1191 1831 
Q 1191 1081 1462 751 
Q 1734 422 2344 422 
Q 2950 422 3222 751 
Q 3494 1081 3494 1831 
L 3494 4666 
L 4128 4666 
L 4128 1753 
Q 4128 841 3676 375 
Q 3225 -91 2344 -91 
Q 1459 -91 1007 375 
Q 556 841 556 1753 
L 556 4666 
z
" transform="scale(0.015625)"/>
     </defs>
     <use xlink:href="#DejaVuSans-38"/>
     <use xlink:href="#DejaVuSans-55" transform="translate(73.1875 0)"/>
     <use xlink:href="#DejaVuSans-47" transform="translate(112.546875 0)"/>
     <use xlink:href="#DejaVuSans-58" transform="translate(176.03125 0)"/>
     <use xlink:href="#DejaVuSans-3" transform="translate(239.40625 0)"/>
     <use xlink:href="#DejaVuSans-55" transform="translate(271.1875 0)"/>
     <use xlink:href="#DejaVuSans-48" transform="translate(310.09375 0)"/>
     <use xlink:href="#DejaVuSans-53" transform="translate(371.625 0)"/>
     <use xlink:href="#DejaVuSans-4f" transform="translate(435.109375 0)"/>
     <use xlink:href="#DejaVuSans-5c" transform="translate(462.890625 0)"/>
    </g>
   </g>
   <g id="text_5">
    <!-- TTS · mouth -->
    <g style="fill: #1b2a3a" transform="translate(517.691484 171.942354) scale(0.105 -0.105)">
     <defs>
      <path id="DejaVuSans-37" d="M -19 4666 
L 3928 4666 
L 3928 4134 
L 2272 4134 
L 2272 0 
L 1638 0 
L 1638 4134 
L -19 4134 
L -19 4666 
z
" transform="scale(0.015625)"/>
      <path id="DejaVuSans-50" d="M 3328 2828 
Q 3544 3216 3844 3400 
Q 4144 3584 4550 3584 
Q 5097 3584 5394 3201 
Q 5691 2819 5691 2113 
L 5691 0 
L 5113 0 
L 5113 2094 
Q 5113 2597 4934 2840 
Q 4756 3084 4391 3084 
Q 3944 3084 3684 2787 
Q 3425 2491 3425 1978 
L 3425 0 
L 2847 0 
L 2847 2094 
Q 2847 2600 2669 2842 
Q 2491 3084 2119 3084 
Q 1678 3084 1418 2786 
Q 1159 2488 1159 1978 
L 1159 0 
L 581 0 
L 581 3500 
L 1159 3500 
L 1159 2956 
Q 1356 3278 1631 3431 
Q 1906 3584 2284 3584 
Q 2666 3584 2933 3390 
Q 3200 3197 3328 2828 
z
" transform="scale(0.015625)"/>
     </defs>
     <use xlink:href="#DejaVuSans-37"/>
     <use xlink:href="#DejaVuSans-37" transform="translate(59.328125 0)"/>
     <use xlink:href="#DejaVuSans-36" transform="translate(120.40625 0)"/>
     <use xlink:href="#DejaVuSans-3" transform="translate(183.890625 0)"/>
     <use xlink:href="#DejaVuSans-79" transform="translate(215.671875 0)"/>
     <use xlink:href="#DejaVuSans-3" transform="translate(247.453125 0)"/>
     <use xlink:href="#DejaVuSans-50" transform="translate(279.234375 0)"/>
     <use xlink:href="#DejaVuSans-52" transform="translate(376.640625 0)"/>
     <use xlink:href="#DejaVuSans-58" transform="translate(437.828125 0)"/>
     <use xlink:href="#DejaVuSans-57" transform="translate(501.203125 0)"/>
     <use xlink:href="#DejaVuSans-4b" transform="translate(540.40625 0)"/>
    </g>
    <!-- text → speech -->
    <g style="fill: #1b2a3a" transform="translate(512.548945 184.545225) scale(0.105 -0.105)">
     <use xlink:href="#DejaVuSans-57"/>
     <use xlink:href="#DejaVuSans-48" transform="translate(39.203125 0)"/>
     <use xlink:href="#DejaVuSans-5b" transform="translate(98.984375 0)"/>
     <use xlink:href="#DejaVuSans-57" transform="translate(158.171875 0)"/>
     <use xlink:href="#DejaVuSans-3" transform="translate(197.375 0)"/>
     <use xlink:href="#DejaVuSans-c1c" transform="translate(229.15625 0)"/>
     <use xlink:href="#DejaVuSans-3" transform="translate(312.953125 0)"/>
     <use xlink:href="#DejaVuSans-56" transform="translate(344.734375 0)"/>
     <use xlink:href="#DejaVuSans-53" transform="translate(396.828125 0)"/>
     <use xlink:href="#DejaVuSans-48" transform="translate(460.3125 0)"/>
     <use xlink:href="#DejaVuSans-48" transform="translate(521.84375 0)"/>
     <use xlink:href="#DejaVuSans-46" transform="translate(583.375 0)"/>
     <use xlink:href="#DejaVuSans-4b" transform="translate(638.359375 0)"/>
    </g>
   </g>
   <g id="text_6">
    <!-- TTS · mouth -->
    <g style="fill: #1b2a3a" transform="translate(517.691484 171.942354) scale(0.105 -0.105)">
     <use xlink:href="#DejaVuSans-37"/>
     <use xlink:href="#DejaVuSans-37" transform="translate(59.328125 0)"/>
     <use xlink:href="#DejaVuSans-36" transform="translate(120.40625 0)"/>
     <use xlink:href="#DejaVuSans-3" transform="translate(183.890625 0)"/>
     <use xlink:href="#DejaVuSans-79" transform="translate(215.671875 0)"/>
     <use xlink:href="#DejaVuSans-3" transform="translate(247.453125 0)"/>
     <use xlink:href="#DejaVuSans-50" transform="translate(279.234375 0)"/>
     <use xlink:href="#DejaVuSans-52" transform="translate(376.640625 0)"/>
     <use xlink:href="#DejaVuSans-58" transform="translate(437.828125 0)"/>
     <use xlink:href="#DejaVuSans-57" transform="translate(501.203125 0)"/>
     <use xlink:href="#DejaVuSans-4b" transform="translate(540.40625 0)"/>
    </g>
    <!-- text → speech -->
    <g style="fill: #1b2a3a" transform="translate(512.548945 184.545225) scale(0.105 -0.105)">
     <use xlink:href="#DejaVuSans-57"/>
     <use xlink:href="#DejaVuSans-48" transform="translate(39.203125 0)"/>
     <use xlink:href="#DejaVuSans-5b" transform="translate(98.984375 0)"/>
     <use xlink:href="#DejaVuSans-57" transform="translate(158.171875 0)"/>
     <use xlink:href="#DejaVuSans-3" transform="translate(197.375 0)"/>
     <use xlink:href="#DejaVuSans-c1c" transform="translate(229.15625 0)"/>
     <use xlink:href="#DejaVuSans-3" transform="translate(312.953125 0)"/>
     <use xlink:href="#DejaVuSans-56" transform="translate(344.734375 0)"/>
     <use xlink:href="#DejaVuSans-53" transform="translate(396.828125 0)"/>
     <use xlink:href="#DejaVuSans-48" transform="translate(460.3125 0)"/>
     <use xlink:href="#DejaVuSans-48" transform="translate(521.84375 0)"/>
     <use xlink:href="#DejaVuSans-46" transform="translate(583.375 0)"/>
     <use xlink:href="#DejaVuSans-4b" transform="translate(638.359375 0)"/>
    </g>
   </g>
   <g id="text_7">
    <!-- bot -->
    <g style="fill: #6b7a89" transform="translate(618.4425 172.11252) scale(0.1 -0.1)">
     <use xlink:href="#DejaVuSans-45"/>
     <use xlink:href="#DejaVuSans-52" transform="translate(63.484375 0)"/>
     <use xlink:href="#DejaVuSans-57" transform="translate(124.671875 0)"/>
    </g>
    <!-- audio -->
    <g style="fill: #6b7a89" transform="translate(618.4425 184.115254) scale(0.1 -0.1)">
     <use xlink:href="#DejaVuSans-44"/>
     <use xlink:href="#DejaVuSans-58" transform="translate(61.28125 0)"/>
     <use xlink:href="#DejaVuSans-47" transform="translate(124.65625 0)"/>
     <use xlink:href="#DejaVuSans-4c" transform="translate(188.140625 0)"/>
     <use xlink:href="#DejaVuSans-52" transform="translate(215.921875 0)"/>
    </g>
   </g>
   <g id="text_8">
    <!-- DuplexOrchestrator  ·  synchronous barge-in state machine -->
    <g style="fill: #1b2a3a" transform="translate(121.34832 76.493994) scale(0.115 -0.115)">
     <defs>
      <path id="DejaVuSans-Bold-27" d="M 1791 3756 
L 1791 909 
L 2222 909 
Q 2959 909 3348 1275 
Q 3738 1641 3738 2338 
Q 3738 3031 3350 3393 
Q 2963 3756 2222 3756 
L 1791 3756 
z
M 588 4666 
L 1856 4666 
Q 2919 4666 3439 4514 
Q 3959 4363 4331 4000 
Q 4659 3684 4818 3271 
Q 4978 2859 4978 2338 
Q 4978 1809 4818 1395 
Q 4659 981 4331 666 
Q 3956 303 3431 151 
Q 2906 0 1856 0 
L 588 0 
L 588 4666 
z
" transform="scale(0.015625)"/>
      <path id="DejaVuSans-Bold-58" d="M 500 1363 
L 500 3500 
L 1625 3500 
L 1625 3150 
Q 1625 2866 1622 2436 
Q 1619 2006 1619 1863 
Q 1619 1441 1641 1255 
Q 1663 1069 1716 984 
Q 1784 875 1895 815 
Q 2006 756 2150 756 
Q 2500 756 2700 1025 
Q 2900 1294 2900 1772 
L 2900 3500 
L 4019 3500 
L 4019 0 
L 2900 0 
L 2900 506 
Q 2647 200 2364 54 
Q 2081 -91 1741 -91 
Q 1134 -91 817 281 
Q 500 653 500 1363 
z
" transform="scale(0.015625)"/>
      <path id="DejaVuSans-Bold-53" d="M 1656 506 
L 1656 -1331 
L 538 -1331 
L 538 3500 
L 1656 3500 
L 1656 2988 
Q 1888 3294 2169 3439 
Q 2450 3584 2816 3584 
Q 3463 3584 3878 3070 
Q 4294 2556 4294 1747 
Q 4294 938 3878 423 
Q 3463 -91 2816 -91 
Q 2450 -91 2169 54 
Q 1888 200 1656 506 
z
M 2400 2772 
Q 2041 2772 1848 2508 
Q 1656 2244 1656 1747 
Q 1656 1250 1848 986 
Q 2041 722 2400 722 
Q 2759 722 2948 984 
Q 3138 1247 3138 1747 
Q 3138 2247 2948 2509 
Q 2759 2772 2400 2772 
z
" transform="scale(0.015625)"/>
      <path id="DejaVuSans-Bold-4f" d="M 538 4863 
L 1656 4863 
L 1656 0 
L 538 0 
L 538 4863 
z
" transform="scale(0.015625)"/>
      <path id="DejaVuSans-Bold-48" d="M 4031 1759 
L 4031 1441 
L 1416 1441 
Q 1456 1047 1700 850 
Q 1944 653 2381 653 
Q 2734 653 3104 758 
Q 3475 863 3866 1075 
L 3866 213 
Q 3469 63 3072 -14 
Q 2675 -91 2278 -91 
Q 1328 -91 801 392 
Q 275 875 275 1747 
Q 275 2603 792 3093 
Q 1309 3584 2216 3584 
Q 3041 3584 3536 3087 
Q 4031 2591 4031 1759 
z
M 2881 2131 
Q 2881 2450 2695 2645 
Q 2509 2841 2209 2841 
Q 1884 2841 1681 2658 
Q 1478 2475 1428 2131 
L 2881 2131 
z
" transform="scale(0.015625)"/>
      <path id="DejaVuSans-Bold-5b" d="M 1422 1791 
L 159 3500 
L 1344 3500 
L 2059 2463 
L 2784 3500 
L 3969 3500 
L 2706 1797 
L 4031 0 
L 2847 0 
L 2059 1106 
L 1281 0 
L 97 0 
L 1422 1791 
z
" transform="scale(0.015625)"/>
      <path id="DejaVuSans-Bold-32" d="M 2719 3878 
Q 2169 3878 1866 3472 
Q 1563 3066 1563 2328 
Q 1563 1594 1866 1187 
Q 2169 781 2719 781 
Q 3272 781 3575 1187 
Q 3878 1594 3878 2328 
Q 3878 3066 3575 3472 
Q 3272 3878 2719 3878 
z
M 2719 4750 
Q 3844 4750 4481 4106 
Q 5119 3463 5119 2328 
Q 5119 1197 4481 553 
Q 3844 -91 2719 -91 
Q 1597 -91 958 553 
Q 319 1197 319 2328 
Q 319 3463 958 4106 
Q 1597 4750 2719 4750 
z
" transform="scale(0.015625)"/>
      <path id="DejaVuSans-Bold-55" d="M 3138 2547 
Q 2991 2616 2845 2648 
Q 2700 2681 2553 2681 
Q 2122 2681 1889 2404 
Q 1656 2128 1656 1613 
L 1656 0 
L 538 0 
L 538 3500 
L 1656 3500 
L 1656 2925 
Q 1872 3269 2151 3426 
Q 2431 3584 2822 3584 
Q 2878 3584 2943 3579 
Q 3009 3575 3134 3559 
L 3138 2547 
z
" transform="scale(0.015625)"/>
      <path id="DejaVuSans-Bold-46" d="M 3366 3391 
L 3366 2478 
Q 3138 2634 2908 2709 
Q 2678 2784 2431 2784 
Q 1963 2784 1702 2511 
Q 1441 2238 1441 1747 
Q 1441 1256 1702 982 
Q 1963 709 2431 709 
Q 2694 709 2930 787 
Q 3166 866 3366 1019 
L 3366 103 
Q 3103 6 2833 -42 
Q 2563 -91 2291 -91 
Q 1344 -91 809 395 
Q 275 881 275 1747 
Q 275 2613 809 3098 
Q 1344 3584 2291 3584 
Q 2566 3584 2833 3536 
Q 3100 3488 3366 3391 
z
" transform="scale(0.015625)"/>
      <path id="DejaVuSans-Bold-4b" d="M 4056 2131 
L 4056 0 
L 2931 0 
L 2931 347 
L 2931 1625 
Q 2931 2084 2911 2256 
Q 2891 2428 2841 2509 
Q 2775 2619 2662 2680 
Q 2550 2741 2406 2741 
Q 2056 2741 1856 2470 
Q 1656 2200 1656 1722 
L 1656 0 
L 538 0 
L 538 4863 
L 1656 4863 
L 1656 2988 
Q 1909 3294 2193 3439 
Q 2478 3584 2822 3584 
Q 3428 3584 3742 3212 
Q 4056 2841 4056 2131 
z
" transform="scale(0.015625)"/>
      <path id="DejaVuSans-Bold-56" d="M 3272 3391 
L 3272 2541 
Q 2913 2691 2578 2766 
Q 2244 2841 1947 2841 
Q 1628 2841 1473 2761 
Q 1319 2681 1319 2516 
Q 1319 2381 1436 2309 
Q 1553 2238 1856 2203 
L 2053 2175 
Q 2913 2066 3209 1816 
Q 3506 1566 3506 1031 
Q 3506 472 3093 190 
Q 2681 -91 1863 -91 
Q 1516 -91 1145 -36 
Q 775 19 384 128 
L 384 978 
Q 719 816 1070 734 
Q 1422 653 1784 653 
Q 2113 653 2278 743 
Q 2444 834 2444 1013 
Q 2444 1163 2330 1236 
Q 2216 1309 1875 1350 
L 1678 1375 
Q 931 1469 631 1722 
Q 331 1975 331 2491 
Q 331 3047 712 3315 
Q 1094 3584 1881 3584 
Q 2191 3584 2531 3537 
Q 2872 3491 3272 3391 
z
" transform="scale(0.015625)"/>
      <path id="DejaVuSans-Bold-57" d="M 1759 4494 
L 1759 3500 
L 2913 3500 
L 2913 2700 
L 1759 2700 
L 1759 1216 
Q 1759 972 1856 886 
Q 1953 800 2241 800 
L 2816 800 
L 2816 0 
L 1856 0 
Q 1194 0 917 276 
Q 641 553 641 1216 
L 641 2700 
L 84 2700 
L 84 3500 
L 641 3500 
L 641 4494 
L 1759 4494 
z
" transform="scale(0.015625)"/>
      <path id="DejaVuSans-Bold-44" d="M 2106 1575 
Q 1756 1575 1579 1456 
Q 1403 1338 1403 1106 
Q 1403 894 1545 773 
Q 1688 653 1941 653 
Q 2256 653 2472 879 
Q 2688 1106 2688 1447 
L 2688 1575 
L 2106 1575 
z
M 3816 1997 
L 3816 0 
L 2688 0 
L 2688 519 
Q 2463 200 2181 54 
Q 1900 -91 1497 -91 
Q 953 -91 614 226 
Q 275 544 275 1050 
Q 275 1666 698 1953 
Q 1122 2241 2028 2241 
L 2688 2241 
L 2688 2328 
Q 2688 2594 2478 2717 
Q 2269 2841 1825 2841 
Q 1466 2841 1156 2769 
Q 847 2697 581 2553 
L 581 3406 
Q 941 3494 1303 3539 
Q 1666 3584 2028 3584 
Q 2975 3584 3395 3211 
Q 3816 2838 3816 1997 
z
" transform="scale(0.015625)"/>
      <path id="DejaVuSans-Bold-52" d="M 2203 2784 
Q 1831 2784 1636 2517 
Q 1441 2250 1441 1747 
Q 1441 1244 1636 976 
Q 1831 709 2203 709 
Q 2569 709 2762 976 
Q 2956 1244 2956 1747 
Q 2956 2250 2762 2517 
Q 2569 2784 2203 2784 
z
M 2203 3584 
Q 3106 3584 3614 3096 
Q 4122 2609 4122 1747 
Q 4122 884 3614 396 
Q 3106 -91 2203 -91 
Q 1297 -91 786 396 
Q 275 884 275 1747 
Q 275 2609 786 3096 
Q 1297 3584 2203 3584 
z
" transform="scale(0.015625)"/>
      <path id="DejaVuSans-Bold-3" transform="scale(0.015625)"/>
      <path id="DejaVuSans-Bold-79" d="M 653 2828 
L 1778 2828 
L 1778 1619 
L 653 1619 
L 653 2828 
z
" transform="scale(0.015625)"/>
      <path id="DejaVuSans-Bold-5c" d="M 78 3500 
L 1197 3500 
L 2138 1125 
L 2938 3500 
L 4056 3500 
L 2584 -331 
Q 2363 -916 2067 -1148 
Q 1772 -1381 1288 -1381 
L 641 -1381 
L 641 -647 
L 991 -647 
Q 1275 -647 1404 -556 
Q 1534 -466 1606 -231 
L 1638 -134 
L 78 3500 
z
" transform="scale(0.015625)"/>
      <path id="DejaVuSans-Bold-51" d="M 4056 2131 
L 4056 0 
L 2931 0 
L 2931 347 
L 2931 1631 
Q 2931 2084 2911 2256 
Q 2891 2428 2841 2509 
Q 2775 2619 2662 2680 
Q 2550 2741 2406 2741 
Q 2056 2741 1856 2470 
Q 1656 2200 1656 1722 
L 1656 0 
L 538 0 
L 538 3500 
L 1656 3500 
L 1656 2988 
Q 1909 3294 2193 3439 
Q 2478 3584 2822 3584 
Q 3428 3584 3742 3212 
Q 4056 2841 4056 2131 
z
" transform="scale(0.015625)"/>
      <path id="DejaVuSans-Bold-45" d="M 2400 722 
Q 2759 722 2948 984 
Q 3138 1247 3138 1747 
Q 3138 2247 2948 2509 
Q 2759 2772 2400 2772 
Q 2041 2772 1848 2508 
Q 1656 2244 1656 1747 
Q 1656 1250 1848 986 
Q 2041 722 2400 722 
z
M 1656 2988 
Q 1888 3294 2169 3439 
Q 2450 3584 2816 3584 
Q 3463 3584 3878 3070 
Q 4294 2556 4294 1747 
Q 4294 938 3878 423 
Q 3463 -91 2816 -91 
Q 2450 -91 2169 54 
Q 1888 200 1656 506 
L 1656 0 
L 538 0 
L 538 4863 
L 1656 4863 
L 1656 2988 
z
" transform="scale(0.015625)"/>
      <path id="DejaVuSans-Bold-4a" d="M 2919 594 
Q 2688 288 2409 144 
Q 2131 0 1766 0 
Q 1125 0 706 504 
Q 288 1009 288 1791 
Q 288 2575 706 3076 
Q 1125 3578 1766 3578 
Q 2131 3578 2409 3434 
Q 2688 3291 2919 2981 
L 2919 3500 
L 4044 3500 
L 4044 353 
Q 4044 -491 3511 -936 
Q 2978 -1381 1966 -1381 
Q 1638 -1381 1331 -1331 
Q 1025 -1281 716 -1178 
L 716 -306 
Q 1009 -475 1290 -558 
Q 1572 -641 1856 -641 
Q 2406 -641 2662 -400 
Q 2919 -159 2919 353 
L 2919 594 
z
M 2181 2772 
Q 1834 2772 1640 2515 
Q 1447 2259 1447 1791 
Q 1447 1309 1634 1061 
Q 1822 813 2181 813 
Q 2531 813 2725 1069 
Q 2919 1325 2919 1791 
Q 2919 2259 2725 2515 
Q 2531 2772 2181 2772 
z
" transform="scale(0.015625)"/>
      <path id="DejaVuSans-Bold-10" d="M 347 2297 
L 2309 2297 
L 2309 1388 
L 347 1388 
L 347 2297 
z
" transform="scale(0.015625)"/>
      <path id="DejaVuSans-Bold-4c" d="M 538 3500 
L 1656 3500 
L 1656 0 
L 538 0 
L 538 3500 
z
M 538 4863 
L 1656 4863 
L 1656 3950 
L 538 3950 
L 538 4863 
z
" transform="scale(0.015625)"/>
      <path id="DejaVuSans-Bold-50" d="M 3781 2919 
Q 3994 3244 4286 3414 
Q 4578 3584 4928 3584 
Q 5531 3584 5847 3212 
Q 6163 2841 6163 2131 
L 6163 0 
L 5038 0 
L 5038 1825 
Q 5041 1866 5042 1909 
Q 5044 1953 5044 2034 
Q 5044 2406 4934 2573 
Q 4825 2741 4581 2741 
Q 4263 2741 4089 2478 
Q 3916 2216 3909 1719 
L 3909 0 
L 2784 0 
L 2784 1825 
Q 2784 2406 2684 2573 
Q 2584 2741 2328 2741 
Q 2006 2741 1831 2477 
Q 1656 2213 1656 1722 
L 1656 0 
L 531 0 
L 531 3500 
L 1656 3500 
L 1656 2988 
Q 1863 3284 2130 3434 
Q 2397 3584 2719 3584 
Q 3081 3584 3359 3409 
Q 3638 3234 3781 2919 
z
" transform="scale(0.015625)"/>
     </defs>
     <use xlink:href="#DejaVuSans-Bold-27"/>
     <use xlink:href="#DejaVuSans-Bold-58" transform="translate(83.015625 0)"/>
     <use xlink:href="#DejaVuSans-Bold-53" transform="translate(154.203125 0)"/>
     <use xlink:href="#DejaVuSans-Bold-4f" transform="translate(225.78125 0)"/>
     <use xlink:href="#DejaVuSans-Bold-48" transform="translate(260.0625 0)"/>
     <use xlink:href="#DejaVuSans-Bold-5b" transform="translate(327.890625 0)"/>
     <use xlink:href="#DejaVuSans-Bold-32" transform="translate(392.390625 0)"/>
     <use xlink:href="#DejaVuSans-Bold-55" transform="translate(477.40625 0)"/>
     <use xlink:href="#DejaVuSans-Bold-46" transform="translate(526.71875 0)"/>
     <use xlink:href="#DejaVuSans-Bold-4b" transform="translate(586 0)"/>
     <use xlink:href="#DejaVuSans-Bold-48" transform="translate(657.1875 0)"/>
     <use xlink:href="#DejaVuSans-Bold-56" transform="translate(725.015625 0)"/>
     <use xlink:href="#DejaVuSans-Bold-57" transform="translate(784.53125 0)"/>
     <use xlink:href="#DejaVuSans-Bold-55" transform="translate(832.328125 0)"/>
     <use xlink:href="#DejaVuSans-Bold-44" transform="translate(881.640625 0)"/>
     <use xlink:href="#DejaVuSans-Bold-57" transform="translate(949.125 0)"/>
     <use xlink:href="#DejaVuSans-Bold-52" transform="translate(996.921875 0)"/>
     <use xlink:href="#DejaVuSans-Bold-55" transform="translate(1065.625 0)"/>
     <use xlink:href="#DejaVuSans-Bold-3" transform="translate(1114.9375 0)"/>
     <use xlink:href="#DejaVuSans-Bold-3" transform="translate(1149.75 0)"/>
     <use xlink:href="#DejaVuSans-Bold-79" transform="translate(1184.5625 0)"/>
     <use xlink:href="#DejaVuSans-Bold-3" transform="translate(1222.546875 0)"/>
     <use xlink:href="#DejaVuSans-Bold-3" transform="translate(1257.359375 0)"/>
     <use xlink:href="#DejaVuSans-Bold-56" transform="translate(1292.171875 0)"/>
     <use xlink:href="#DejaVuSans-Bold-5c" transform="translate(1351.6875 0)"/>
     <use xlink:href="#DejaVuSans-Bold-51" transform="translate(1416.875 0)"/>
     <use xlink:href="#DejaVuSans-Bold-46" transform="translate(1488.0625 0)"/>
     <use xlink:href="#DejaVuSans-Bold-4b" transform="translate(1547.34375 0)"/>
     <use xlink:href="#DejaVuSans-Bold-55" transform="translate(1618.53125 0)"/>
     <use xlink:href="#DejaVuSans-Bold-52" transform="translate(1667.84375 0)"/>
     <use xlink:href="#DejaVuSans-Bold-51" transform="translate(1736.546875 0)"/>
     <use xlink:href="#DejaVuSans-Bold-52" transform="translate(1807.734375 0)"/>
     <use xlink:href="#DejaVuSans-Bold-58" transform="translate(1876.4375 0)"/>
     <use xlink:href="#DejaVuSans-Bold-56" transform="translate(1947.625 0)"/>
     <use xlink:href="#DejaVuSans-Bold-3" transform="translate(2007.140625 0)"/>
     <use xlink:href="#DejaVuSans-Bold-45" transform="translate(2041.953125 0)"/>
     <use xlink:href="#DejaVuSans-Bold-44" transform="translate(2113.53125 0)"/>
     <use xlink:href="#DejaVuSans-Bold-55" transform="translate(2181.015625 0)"/>
     <use xlink:href="#DejaVuSans-Bold-4a" transform="translate(2230.328125 0)"/>
     <use xlink:href="#DejaVuSans-Bold-48" transform="translate(2301.90625 0)"/>
     <use xlink:href="#DejaVuSans-Bold-10" transform="translate(2369.734375 0)"/>
     <use xlink:href="#DejaVuSans-Bold-4c" transform="translate(2411.234375 0)"/>
     <use xlink:href="#DejaVuSans-Bold-51" transform="translate(2445.515625 0)"/>
     <use xlink:href="#DejaVuSans-Bold-3" transform="translate(2516.703125 0)"/>
     <use xlink:href="#DejaVuSans-Bold-56" transform="translate(2551.515625 0)"/>
     <use xlink:href="#DejaVuSans-Bold-57" transform="translate(2611.03125 0)"/>
     <use xlink:href="#DejaVuSans-Bold-44" transform="translate(2658.828125 0)"/>
     <use xlink:href="#DejaVuSans-Bold-57" transform="translate(2726.3125 0)"/>
     <use xlink:href="#DejaVuSans-Bold-48" transform="translate(2774.109375 0)"/>
     <use xlink:href="#DejaVuSans-Bold-3" transform="translate(2841.9375 0)"/>
     <use xlink:href="#DejaVuSans-Bold-50" transform="translate(2876.75 0)"/>
     <use xlink:href="#DejaVuSans-Bold-44" transform="translate(2980.953125 0)"/>
     <use xlink:href="#DejaVuSans-Bold-46" transform="translate(3048.4375 0)"/>
     <use xlink:href="#DejaVuSans-Bold-4b" transform="translate(3107.71875 0)"/>
     <use xlink:href="#DejaVuSans-Bold-4c" transform="translate(3178.90625 0)"/>
     <use xlink:href="#DejaVuSans-Bold-51" transform="translate(3213.1875 0)"/>
     <use xlink:href="#DejaVuSans-Bold-48" transform="translate(3284.375 0)"/>
    </g>
   </g>
   <g id="text_9">
    <!-- speech -->
    <g style="fill: #e8743b" transform="translate(145.4775 101.557516) scale(0.085 -0.085)">
     <use xlink:href="#DejaVuSans-56"/>
     <use xlink:href="#DejaVuSans-53" transform="translate(52.09375 0)"/>
     <use xlink:href="#DejaVuSans-48" transform="translate(115.578125 0)"/>
     <use xlink:href="#DejaVuSans-48" transform="translate(177.109375 0)"/>
     <use xlink:href="#DejaVuSans-46" transform="translate(238.640625 0)"/>
     <use xlink:href="#DejaVuSans-4b" transform="translate(293.625 0)"/>
    </g>
    <!-- detected -->
    <g style="fill: #e8743b" transform="translate(141.739492 111.75984) scale(0.085 -0.085)">
     <use xlink:href="#DejaVuSans-47"/>
     <use xlink:href="#DejaVuSans-48" transform="translate(63.484375 0)"/>
     <use xlink:href="#DejaVuSans-57" transform="translate(125.015625 0)"/>
     <use xlink:href="#DejaVuSans-48" transform="translate(164.21875 0)"/>
     <use xlink:href="#DejaVuSans-46" transform="translate(225.75 0)"/>
     <use xlink:href="#DejaVuSans-57" transform="translate(280.734375 0)"/>
     <use xlink:href="#DejaVuSans-48" transform="translate(319.9375 0)"/>
     <use xlink:href="#DejaVuSans-47" transform="translate(381.46875 0)"/>
    </g>
   </g>
   <g id="text_10">
    <!-- cancel -->
    <g style="fill: #c0392b" transform="translate(461.455156 101.557516) scale(0.085 -0.085)">
     <use xlink:href="#DejaVuSans-46"/>
     <use xlink:href="#DejaVuSans-44" transform="translate(54.984375 0)"/>
     <use xlink:href="#DejaVuSans-51" transform="translate(116.265625 0)"/>
     <use xlink:href="#DejaVuSans-46" transform="translate(179.640625 0)"/>
     <use xlink:href="#DejaVuSans-48" transform="translate(234.625 0)"/>
     <use xlink:href="#DejaVuSans-4f" transform="translate(296.15625 0)"/>
    </g>
    <!-- (barge-in) -->
    <g style="fill: #c0392b" transform="translate(454.210234 111.75984) scale(0.085 -0.085)">
     <defs>
      <path id="DejaVuSans-b" d="M 1984 4856 
Q 1566 4138 1362 3434 
Q 1159 2731 1159 2009 
Q 1159 1288 1364 580 
Q 1569 -128 1984 -844 
L 1484 -844 
Q 1016 -109 783 600 
Q 550 1309 550 2009 
Q 550 2706 781 3412 
Q 1013 4119 1484 4856 
L 1984 4856 
z
" transform="scale(0.015625)"/>
      <path id="DejaVuSans-4a" d="M 2906 1791 
Q 2906 2416 2648 2759 
Q 2391 3103 1925 3103 
Q 1463 3103 1205 2759 
Q 947 2416 947 1791 
Q 947 1169 1205 825 
Q 1463 481 1925 481 
Q 2391 481 2648 825 
Q 2906 1169 2906 1791 
z
M 3481 434 
Q 3481 -459 3084 -895 
Q 2688 -1331 1869 -1331 
Q 1566 -1331 1297 -1286 
Q 1028 -1241 775 -1147 
L 775 -588 
Q 1028 -725 1275 -790 
Q 1522 -856 1778 -856 
Q 2344 -856 2625 -561 
Q 2906 -266 2906 331 
L 2906 616 
Q 2728 306 2450 153 
Q 2172 0 1784 0 
Q 1141 0 747 490 
Q 353 981 353 1791 
Q 353 2603 747 3093 
Q 1141 3584 1784 3584 
Q 2172 3584 2450 3431 
Q 2728 3278 2906 2969 
L 2906 3500 
L 3481 3500 
L 3481 434 
z
" transform="scale(0.015625)"/>
      <path id="DejaVuSans-10" d="M 313 2009 
L 1997 2009 
L 1997 1497 
L 313 1497 
L 313 2009 
z
" transform="scale(0.015625)"/>
      <path id="DejaVuSans-c" d="M 513 4856 
L 1013 4856 
Q 1481 4119 1714 3412 
Q 1947 2706 1947 2009 
Q 1947 1309 1714 600 
Q 1481 -109 1013 -844 
L 513 -844 
Q 928 -128 1133 580 
Q 1338 1288 1338 2009 
Q 1338 2731 1133 3434 
Q 928 4138 513 4856 
z
" transform="scale(0.015625)"/>
     </defs>
     <use xlink:href="#DejaVuSans-b"/>
     <use xlink:href="#DejaVuSans-45" transform="translate(39.015625 0)"/>
     <use xlink:href="#DejaVuSans-44" transform="translate(102.5 0)"/>
     <use xlink:href="#DejaVuSans-55" transform="translate(163.78125 0)"/>
     <use xlink:href="#DejaVuSans-4a" transform="translate(203.140625 0)"/>
     <use xlink:href="#DejaVuSans-48" transform="translate(266.625 0)"/>
     <use xlink:href="#DejaVuSans-10" transform="translate(328.15625 0)"/>
     <use xlink:href="#DejaVuSans-4c" transform="translate(364.234375 0)"/>
     <use xlink:href="#DejaVuSans-51" transform="translate(392.015625 0)"/>
     <use xlink:href="#DejaVuSans-c" transform="translate(455.390625 0)"/>
    </g>
   </g>
   <g id="text_11">
    <!-- Track B — the cascade -->
    <g style="fill: #1b2a3a" transform="translate(17.43 22.50144) scale(0.13 -0.13)">
     <defs>
      <path id="DejaVuSans-Bold-37" d="M 31 4666 
L 4331 4666 
L 4331 3756 
L 2784 3756 
L 2784 0 
L 1581 0 
L 1581 3756 
L 31 3756 
L 31 4666 
z
" transform="scale(0.015625)"/>
      <path id="DejaVuSans-Bold-4e" d="M 538 4863 
L 1656 4863 
L 1656 2216 
L 2944 3500 
L 4244 3500 
L 2534 1894 
L 4378 0 
L 3022 0 
L 1656 1459 
L 1656 0 
L 538 0 
L 538 4863 
z
" transform="scale(0.015625)"/>
      <path id="DejaVuSans-Bold-25" d="M 2456 2859 
Q 2741 2859 2887 2984 
Q 3034 3109 3034 3353 
Q 3034 3594 2887 3720 
Q 2741 3847 2456 3847 
L 1791 3847 
L 1791 2859 
L 2456 2859 
z
M 2497 819 
Q 2859 819 3042 972 
Q 3225 1125 3225 1434 
Q 3225 1738 3044 1889 
Q 2863 2041 2497 2041 
L 1791 2041 
L 1791 819 
L 2497 819 
z
M 3616 2497 
Q 4003 2384 4215 2081 
Q 4428 1778 4428 1338 
Q 4428 663 3972 331 
Q 3516 0 2584 0 
L 588 0 
L 588 4666 
L 2394 4666 
Q 3366 4666 3802 4372 
Q 4238 4078 4238 3431 
Q 4238 3091 4078 2852 
Q 3919 2613 3616 2497 
z
" transform="scale(0.015625)"/>
      <path id="DejaVuSans-Bold-af6" d="M 344 2156 
L 6056 2156 
L 6056 1350 
L 344 1350 
L 344 2156 
z
" transform="scale(0.015625)"/>
      <path id="DejaVuSans-Bold-47" d="M 2919 2988 
L 2919 4863 
L 4044 4863 
L 4044 0 
L 2919 0 
L 2919 506 
Q 2688 197 2409 53 
Q 2131 -91 1766 -91 
Q 1119 -91 703 423 
Q 288 938 288 1747 
Q 288 2556 703 3070 
Q 1119 3584 1766 3584 
Q 2128 3584 2408 3439 
Q 2688 3294 2919 2988 
z
M 2181 722 
Q 2541 722 2730 984 
Q 2919 1247 2919 1747 
Q 2919 2247 2730 2509 
Q 2541 2772 2181 2772 
Q 1825 2772 1636 2509 
Q 1447 2247 1447 1747 
Q 1447 1247 1636 984 
Q 1825 722 2181 722 
z
" transform="scale(0.015625)"/>
     </defs>
     <use xlink:href="#DejaVuSans-Bold-37"/>
     <use xlink:href="#DejaVuSans-Bold-55" transform="translate(57.234375 0)"/>
     <use xlink:href="#DejaVuSans-Bold-44" transform="translate(106.546875 0)"/>
     <use xlink:href="#DejaVuSans-Bold-46" transform="translate(174.03125 0)"/>
     <use xlink:href="#DejaVuSans-Bold-4e" transform="translate(233.3125 0)"/>
     <use xlink:href="#DejaVuSans-Bold-3" transform="translate(299.8125 0)"/>
     <use xlink:href="#DejaVuSans-Bold-25" transform="translate(334.625 0)"/>
     <use xlink:href="#DejaVuSans-Bold-3" transform="translate(410.84375 0)"/>
     <use xlink:href="#DejaVuSans-Bold-af6" transform="translate(445.65625 0)"/>
     <use xlink:href="#DejaVuSans-Bold-3" transform="translate(545.65625 0)"/>
     <use xlink:href="#DejaVuSans-Bold-57" transform="translate(580.46875 0)"/>
     <use xlink:href="#DejaVuSans-Bold-4b" transform="translate(628.265625 0)"/>
     <use xlink:href="#DejaVuSans-Bold-48" transform="translate(699.453125 0)"/>
     <use xlink:href="#DejaVuSans-Bold-3" transform="translate(767.28125 0)"/>
     <use xlink:href="#DejaVuSans-Bold-46" transform="translate(802.09375 0)"/>
     <use xlink:href="#DejaVuSans-Bold-44" transform="translate(861.375 0)"/>
     <use xlink:href="#DejaVuSans-Bold-56" transform="translate(928.859375 0)"/>
     <use xlink:href="#DejaVuSans-Bold-46" transform="translate(988.375 0)"/>
     <use xlink:href="#DejaVuSans-Bold-44" transform="translate(1047.65625 0)"/>
     <use xlink:href="#DejaVuSans-Bold-47" transform="translate(1115.140625 0)"/>
     <use xlink:href="#DejaVuSans-Bold-48" transform="translate(1186.71875 0)"/>
    </g>
   </g>
   <g id="text_12">
    <!-- Three swappable model components behind a referee that keeps listening while the bot talks. -->
    <g style="fill: #6b7a89" transform="translate(17.43 244.37232) scale(0.095 -0.095)">
     <defs>
      <path id="DejaVuSans-5a" d="M 269 3500 
L 844 3500 
L 1563 769 
L 2278 3500 
L 2956 3500 
L 3675 769 
L 4391 3500 
L 4966 3500 
L 4050 0 
L 3372 0 
L 2619 2869 
L 1863 0 
L 1184 0 
L 269 3500 
z
" transform="scale(0.015625)"/>
      <path id="DejaVuSans-49" d="M 2375 4863 
L 2375 4384 
L 1825 4384 
Q 1516 4384 1395 4259 
Q 1275 4134 1275 3809 
L 1275 3500 
L 2222 3500 
L 2222 3053 
L 1275 3053 
L 1275 0 
L 697 0 
L 697 3053 
L 147 3053 
L 147 3500 
L 697 3500 
L 697 3744 
Q 697 4328 969 4595 
Q 1241 4863 1831 4863 
L 2375 4863 
z
" transform="scale(0.015625)"/>
      <path id="DejaVuSans-4e" d="M 581 4863 
L 1159 4863 
L 1159 1991 
L 2875 3500 
L 3609 3500 
L 1753 1863 
L 3688 0 
L 2938 0 
L 1159 1709 
L 1159 0 
L 581 0 
L 581 4863 
z
" transform="scale(0.015625)"/>
      <path id="DejaVuSans-11" d="M 684 794 
L 1344 794 
L 1344 0 
L 684 0 
L 684 794 
z
" transform="scale(0.015625)"/>
     </defs>
     <use xlink:href="#DejaVuSans-37"/>
     <use xlink:href="#DejaVuSans-4b" transform="translate(61.078125 0)"/>
     <use xlink:href="#DejaVuSans-55" transform="translate(124.453125 0)"/>
     <use xlink:href="#DejaVuSans-48" transform="translate(163.359375 0)"/>
     <use xlink:href="#DejaVuSans-48" transform="translate(224.890625 0)"/>
     <use xlink:href="#DejaVuSans-3" transform="translate(286.421875 0)"/>
     <use xlink:href="#DejaVuSans-56" transform="translate(318.203125 0)"/>
     <use xlink:href="#DejaVuSans-5a" transform="translate(370.296875 0)"/>
     <use xlink:href="#DejaVuSans-44" transform="translate(452.078125 0)"/>
     <use xlink:href="#DejaVuSans-53" transform="translate(513.359375 0)"/>
     <use xlink:href="#DejaVuSans-53" transform="translate(576.84375 0)"/>
     <use xlink:href="#DejaVuSans-44" transform="translate(640.328125 0)"/>
     <use xlink:href="#DejaVuSans-45" transform="translate(701.609375 0)"/>
     <use xlink:href="#DejaVuSans-4f" transform="translate(765.09375 0)"/>
     <use xlink:href="#DejaVuSans-48" transform="translate(792.875 0)"/>
     <use xlink:href="#DejaVuSans-3" transform="translate(854.40625 0)"/>
     <use xlink:href="#DejaVuSans-50" transform="translate(886.1875 0)"/>
     <use xlink:href="#DejaVuSans-52" transform="translate(983.59375 0)"/>
     <use xlink:href="#DejaVuSans-47" transform="translate(1044.78125 0)"/>
     <use xlink:href="#DejaVuSans-48" transform="translate(1108.265625 0)"/>
     <use xlink:href="#DejaVuSans-4f" transform="translate(1169.796875 0)"/>
     <use xlink:href="#DejaVuSans-3" transform="translate(1197.578125 0)"/>
     <use xlink:href="#DejaVuSans-46" transform="translate(1229.359375 0)"/>
     <use xlink:href="#DejaVuSans-52" transform="translate(1284.34375 0)"/>
     <use xlink:href="#DejaVuSans-50" transform="translate(1345.53125 0)"/>
     <use xlink:href="#DejaVuSans-53" transform="translate(1442.9375 0)"/>
     <use xlink:href="#DejaVuSans-52" transform="translate(1506.421875 0)"/>
     <use xlink:href="#DejaVuSans-51" transform="translate(1567.609375 0)"/>
     <use xlink:href="#DejaVuSans-48" transform="translate(1630.984375 0)"/>
     <use xlink:href="#DejaVuSans-51" transform="translate(1692.515625 0)"/>
     <use xlink:href="#DejaVuSans-57" transform="translate(1755.890625 0)"/>
     <use xlink:href="#DejaVuSans-56" transform="translate(1795.09375 0)"/>
     <use xlink:href="#DejaVuSans-3" transform="translate(1847.1875 0)"/>
     <use xlink:href="#DejaVuSans-45" transform="translate(1878.96875 0)"/>
     <use xlink:href="#DejaVuSans-48" transform="translate(1942.453125 0)"/>
     <use xlink:href="#DejaVuSans-4b" transform="translate(2003.984375 0)"/>
     <use xlink:href="#DejaVuSans-4c" transform="translate(2067.359375 0)"/>
     <use xlink:href="#DejaVuSans-51" transform="translate(2095.140625 0)"/>
     <use xlink:href="#DejaVuSans-47" transform="translate(2158.515625 0)"/>
     <use xlink:href="#DejaVuSans-3" transform="translate(2222 0)"/>
     <use xlink:href="#DejaVuSans-44" transform="translate(2253.78125 0)"/>
     <use xlink:href="#DejaVuSans-3" transform="translate(2315.0625 0)"/>
     <use xlink:href="#DejaVuSans-55" transform="translate(2346.84375 0)"/>
     <use xlink:href="#DejaVuSans-48" transform="translate(2385.75 0)"/>
     <use xlink:href="#DejaVuSans-49" transform="translate(2447.28125 0)"/>
     <use xlink:href="#DejaVuSans-48" transform="translate(2482.484375 0)"/>
     <use xlink:href="#DejaVuSans-55" transform="translate(2544.015625 0)"/>
     <use xlink:href="#DejaVuSans-48" transform="translate(2582.921875 0)"/>
     <use xlink:href="#DejaVuSans-48" transform="translate(2644.453125 0)"/>
     <use xlink:href="#DejaVuSans-3" transform="translate(2705.984375 0)"/>
     <use xlink:href="#DejaVuSans-57" transform="translate(2737.765625 0)"/>
     <use xlink:href="#DejaVuSans-4b" transform="translate(2776.96875 0)"/>
     <use xlink:href="#DejaVuSans-44" transform="translate(2840.34375 0)"/>
     <use xlink:href="#DejaVuSans-57" transform="translate(2901.625 0)"/>
     <use xlink:href="#DejaVuSans-3" transform="translate(2940.828125 0)"/>
     <use xlink:href="#DejaVuSans-4e" transform="translate(2972.609375 0)"/>
     <use xlink:href="#DejaVuSans-48" transform="translate(3026.953125 0)"/>
     <use xlink:href="#DejaVuSans-48" transform="translate(3088.484375 0)"/>
     <use xlink:href="#DejaVuSans-53" transform="translate(3150.015625 0)"/>
     <use xlink:href="#DejaVuSans-56" transform="translate(3213.5 0)"/>
     <use xlink:href="#DejaVuSans-3" transform="translate(3265.59375 0)"/>
     <use xlink:href="#DejaVuSans-4f" transform="translate(3297.375 0)"/>
     <use xlink:href="#DejaVuSans-4c" transform="translate(3325.15625 0)"/>
     <use xlink:href="#DejaVuSans-56" transform="translate(3352.9375 0)"/>
     <use xlink:href="#DejaVuSans-57" transform="translate(3405.03125 0)"/>
     <use xlink:href="#DejaVuSans-48" transform="translate(3444.234375 0)"/>
     <use xlink:href="#DejaVuSans-51" transform="translate(3505.765625 0)"/>
     <use xlink:href="#DejaVuSans-4c" transform="translate(3569.140625 0)"/>
     <use xlink:href="#DejaVuSans-51" transform="translate(3596.921875 0)"/>
     <use xlink:href="#DejaVuSans-4a" transform="translate(3660.296875 0)"/>
     <use xlink:href="#DejaVuSans-3" transform="translate(3723.78125 0)"/>
     <use xlink:href="#DejaVuSans-5a" transform="translate(3755.5625 0)"/>
     <use xlink:href="#DejaVuSans-4b" transform="translate(3837.34375 0)"/>
     <use xlink:href="#DejaVuSans-4c" transform="translate(3900.71875 0)"/>
     <use xlink:href="#DejaVuSans-4f" transform="translate(3928.5 0)"/>
     <use xlink:href="#DejaVuSans-48" transform="translate(3956.28125 0)"/>
     <use xlink:href="#DejaVuSans-3" transform="translate(4017.8125 0)"/>
     <use xlink:href="#DejaVuSans-57" transform="translate(4049.59375 0)"/>
     <use xlink:href="#DejaVuSans-4b" transform="translate(4088.796875 0)"/>
     <use xlink:href="#DejaVuSans-48" transform="translate(4152.171875 0)"/>
     <use xlink:href="#DejaVuSans-3" transform="translate(4213.703125 0)"/>
     <use xlink:href="#DejaVuSans-45" transform="translate(4245.484375 0)"/>
     <use xlink:href="#DejaVuSans-52" transform="translate(4308.96875 0)"/>
     <use xlink:href="#DejaVuSans-57" transform="translate(4370.15625 0)"/>
     <use xlink:href="#DejaVuSans-3" transform="translate(4409.359375 0)"/>
     <use xlink:href="#DejaVuSans-57" transform="translate(4441.140625 0)"/>
     <use xlink:href="#DejaVuSans-44" transform="translate(4480.34375 0)"/>
     <use xlink:href="#DejaVuSans-4f" transform="translate(4541.625 0)"/>
     <use xlink:href="#DejaVuSans-4e" transform="translate(4569.40625 0)"/>
     <use xlink:href="#DejaVuSans-56" transform="translate(4627.3125 0)"/>
     <use xlink:href="#DejaVuSans-11" transform="translate(4679.40625 0)"/>
    </g>
   </g>
  </g>
 </g>
 <defs>
  <clipPath id="p0d0239be77">
   <rect x="7.2" y="7.2" width="613.8" height="255.024"/>
  </clipPath>
 </defs>
</svg>
